# xmcd
#
# Track frame offsets: 
#        150
#        20549
#        39992
#        64706
#        89242
#        108308
#
# Disc length: 1654 seconds
#
# Revision: 0
# Processed by: cddbd v1.5.2PL0 Copyright (c) Steve Scherf et al.
# Submitted via: ExactAudioCopy v1.3
#
DISCID=49067406
DTITLE=The Delta Saints - Pray On EP
DYEAR=2009
DGENRE=Blues Rock
TTITLE0=Train Song
TTITLE1=Momma
TTITLE2=Pray On
TTITLE3=Steppin'
TTITLE4=3,000 Miles
TTITLE5=I Feel Rain
EXTD=
EXTT0=
EXTT1=
EXTT2=
EXTT3=
EXTT4=
EXTT5=
PLAYORDER=
